<?xml version="1.0" encoding="UTF-8" standalone="no"?>
<svg
   xmlns:dc="http://purl.org/dc/elements/1.1/"
   xmlns:cc="http://creativecommons.org/ns#"
   xmlns:rdf="http://www.w3.org/1999/02/22-rdf-syntax-ns#"
   xmlns:svg="http://www.w3.org/2000/svg"
   xmlns="http://www.w3.org/2000/svg"
   xmlns:sodipodi="http://sodipodi.sourceforge.net/DTD/sodipodi-0.dtd"
   xmlns:inkscape="http://www.inkscape.org/namespaces/inkscape"
   inkscape:version="1.0 (4035a4fb49, 2020-05-01)"
   height="122.8"
   width="122.8"
   sodipodi:docname="slack.svg"
   xml:space="preserve"
   viewBox="0 0 122.8 122.8"
   y="0px"
   x="0px"
   id="Layer_1"
   version="1.1"><metadata
   id="metadata35"><rdf:RDF><cc:Work
       rdf:about=""><dc:format>image/svg+xml</dc:format><dc:type
         rdf:resource="http://purl.org/dc/dcmitype/StillImage" /><dc:title></dc:title></cc:Work></rdf:RDF></metadata><defs
   id="defs33" /><sodipodi:namedview
   inkscape:current-layer="Layer_1"
   inkscape:window-maximized="1"
   inkscape:window-y="-8"
   inkscape:window-x="-8"
   inkscape:cy="61.4"
   inkscape:cx="61.4"
   inkscape:zoom="3.7333333"
   fit-margin-bottom="0"
   fit-margin-right="0"
   fit-margin-left="0"
   fit-margin-top="-2.7755576e-17"
   showgrid="false"
   id="namedview31"
   inkscape:window-height="1377"
   inkscape:window-width="2560"
   inkscape:pageshadow="2"
   inkscape:pageopacity="0"
   guidetolerance="10"
   gridtolerance="10"
   objecttolerance="10"
   borderopacity="1"
   bordercolor="#666666"
   pagecolor="#ffffff" />
<style
   id="style2"
   type="text/css">
	.st0{fill:#E01E5A;}
	.st1{fill:#36C5F0;}
	.st2{fill:#2EB67D;}
	.st3{fill:#ECB22E;}
</style>
<g
   transform="translate(-73.6,-73.6)"
   id="g28">
	<g
   id="g8">
		<path
   id="path4"
   d="m 99.4,151.2 c 0,7.1 -5.8,12.9 -12.9,12.9 -7.1,0 -12.9,-5.8 -12.9,-12.9 0,-7.1 5.8,-12.9 12.9,-12.9 h 12.9 z"
   class="st0" />
		<path
   id="path6"
   d="m 105.9,151.2 c 0,-7.1 5.8,-12.9 12.9,-12.9 7.1,0 12.9,5.8 12.9,12.9 v 32.3 c 0,7.1 -5.8,12.9 -12.9,12.9 -7.1,0 -12.9,-5.8 -12.9,-12.9 z"
   class="st0" />
	</g>
	<g
   id="g14">
		<path
   id="path10"
   d="m 118.8,99.4 c -7.1,0 -12.9,-5.8 -12.9,-12.9 0,-7.1 5.8,-12.9 12.9,-12.9 7.1,0 12.9,5.8 12.9,12.9 v 12.9 z"
   class="st1" />
		<path
   id="path12"
   d="m 118.8,105.9 c 7.1,0 12.9,5.8 12.9,12.9 0,7.1 -5.8,12.9 -12.9,12.9 H 86.5 c -7.1,0 -12.9,-5.8 -12.9,-12.9 0,-7.1 5.8,-12.9 12.9,-12.9 z"
   class="st1" />
	</g>
	<g
   id="g20">
		<path
   id="path16"
   d="m 170.6,118.8 c 0,-7.1 5.8,-12.9 12.9,-12.9 7.1,0 12.9,5.8 12.9,12.9 0,7.1 -5.8,12.9 -12.9,12.9 h -12.9 z"
   class="st2" />
		<path
   id="path18"
   d="m 164.1,118.8 c 0,7.1 -5.8,12.9 -12.9,12.9 -7.1,0 -12.9,-5.8 -12.9,-12.9 V 86.5 c 0,-7.1 5.8,-12.9 12.9,-12.9 7.1,0 12.9,5.8 12.9,12.9 z"
   class="st2" />
	</g>
	<g
   id="g26">
		<path
   id="path22"
   d="m 151.2,170.6 c 7.1,0 12.9,5.8 12.9,12.9 0,7.1 -5.8,12.9 -12.9,12.9 -7.1,0 -12.9,-5.8 -12.9,-12.9 v -12.9 z"
   class="st3" />
		<path
   id="path24"
   d="m 151.2,164.1 c -7.1,0 -12.9,-5.8 -12.9,-12.9 0,-7.1 5.8,-12.9 12.9,-12.9 h 32.3 c 7.1,0 12.9,5.8 12.9,12.9 0,7.1 -5.8,12.9 -12.9,12.9 z"
   class="st3" />
	</g>
</g>
</svg>
